<?xml version="1.0" standalone="no"?>
<!DOCTYPE svg PUBLIC "-//W3C//DTD SVG 20010904//EN"
 "http://www.w3.org/TR/2001/REC-SVG-20010904/DTD/svg10.dtd">
<svg version="1.0" xmlns="http://www.w3.org/2000/svg"
 width="2560.000000pt" height="2560.000000pt" viewBox="0 0 2560.000000 2560.000000"
 preserveAspectRatio="xMidYMid meet">

<g transform="translate(0.000000,2560.000000) scale(0.100000,-0.100000)"
fill="#000000" stroke="none">
<path d="M7535 21340 c-361 -65 -663 -231 -959 -526 -375 -374 -551 -771 -533
-1199 14 -310 70 -513 312 -1115 78 -195 163 -416 189 -490 126 -361 166 -639
132 -922 -20 -172 -20 -343 -1 -492 65 -494 341 -1003 791 -1458 141 -142 196
-177 280 -179 82 -2 140 40 169 120 19 54 19 116 0 256 -54 404 -37 829 45
1125 64 227 139 343 245 376 30 10 57 15 60 13 3 -3 23 -68 44 -145 69 -244
176 -548 305 -869 64 -160 67 -185 41 -410 -33 -283 -31 -334 21 -403 50 -65
140 -82 229 -43 l46 20 8 -22 c5 -12 28 -69 51 -127 237 -592 386 -1110 447
-1560 25 -186 25 -650 1 -825 -41 -284 -48 -674 -18 -930 95 -814 425 -1594
1005 -2375 328 -441 815 -958 1008 -1068 221 -126 452 -78 555 116 68 127 77
261 38 549 -161 1172 -59 2239 275 2893 75 147 187 250 317 290 185 58 366 18
506 -110 74 -69 120 -139 181 -277 296 -674 379 -1669 229 -2780 -40 -301 -31
-436 38 -565 58 -109 164 -177 287 -185 152 -11 282 52 460 222 869 829 1477
1796 1716 2731 124 483 156 1002 89 1474 -61 436 -24 900 112 1419 104 394
225 725 609 1666 345 845 494 1324 564 1810 120 835 -64 1583 -561 2277 -179
251 -509 613 -758 833 -188 165 -421 335 -624 454 -379 223 -839 381 -1226
421 -63 6 -148 16 -188 21 -188 23 -549 -12 -832 -81 -171 -42 -241 -50 -437
-50 -186 0 -305 14 -433 49 -181 49 -492 91 -687 91 -305 0 -725 -77 -1023
-188 -199 -75 -465 -205 -628 -308 -29 -19 -55 -34 -58 -34 -4 0 -36 28 -72
61 -142 133 -340 264 -517 341 -158 68 -423 127 -577 128 -62 0 -180 -18 -342
-52 -120 -25 -285 -21 -416 9 -209 49 -337 55 -515 23z m1582 -240 c127 -32
292 -108 413 -189 79 -53 241 -189 247 -207 2 -6 -41 -45 -95 -86 -308 -238
-630 -568 -891 -914 l-106 -142 -5 97 c-6 103 -15 127 -63 179 -51 53 -101 62
-337 62 -236 0 -286 -9 -337 -62 -58 -60 -63 -86 -63 -312 l0 -205 -217 -3
c-209 -3 -220 -4 -260 -27 -24 -14 -55 -42 -70 -64 l-28 -40 -3 -256 c-3 -250
-2 -257 20 -300 13 -25 40 -59 61 -75 l39 -31 229 -3 229 -3 0 -212 c0 -185 3
-217 19 -252 36 -77 95 -115 180 -115 l48 0 6 -182 c8 -228 37 -475 77 -652 5
-22 8 -42 6 -43 -2 -2 -29 -10 -61 -18 -186 -49 -287 -166 -384 -447 -115
-335 -143 -794 -77 -1278 8 -52 12 -97 9 -99 -6 -7 -116 104 -207 209 -347
402 -548 804 -601 1207 -19 141 -19 253 1 421 19 160 14 391 -11 542 -37 224
-116 475 -257 820 -229 562 -287 725 -327 918 -109 524 8 883 428 1315 231
238 484 390 756 453 61 15 119 19 250 19 152 0 184 -3 300 -29 177 -40 330
-41 492 -3 223 54 396 55 590 7z m5183 -225 c237 -35 505 -121 745 -239 342
-169 662 -410 985 -742 558 -573 834 -1052 938 -1624 24 -133 26 -168 26 -425
1 -305 -7 -384 -65 -665 -91 -440 -216 -798 -607 -1740 -444 -1072 -599 -1591
-658 -2210 -21 -216 -14 -567 16 -800 65 -507 34 -944 -101 -1421 -178 -633
-554 -1302 -1074 -1914 -169 -200 -499 -545 -509 -534 -2 2 5 65 15 139 138
1028 106 1875 -97 2580 -75 260 -204 567 -294 701 -193 286 -527 447 -881 425
-240 -14 -450 -103 -617 -260 -102 -97 -155 -170 -222 -305 -207 -418 -328
-894 -382 -1501 -16 -181 -16 -758 1 -975 15 -212 37 -427 65 -630 12 -91 19
-168 15 -170 -7 -5 -264 253 -374 374 -350 389 -661 832 -884 1262 -241 464
-383 917 -443 1414 -20 167 -15 552 10 747 46 355 50 591 16 926 -54 528 -215
1091 -538 1884 -42 103 -76 191 -76 196 0 5 30 47 66 93 97 123 206 292 279
431 207 401 280 779 230 1198 -25 209 -16 363 31 578 46 209 113 398 322 912
194 476 265 735 279 1015 14 276 -56 557 -198 794 -38 65 -47 86 -37 93 7 5
57 34 112 65 243 138 518 243 761 292 205 41 266 46 525 46 279 -1 336 -8 600
-70 213 -50 334 -65 526 -65 194 0 316 15 523 65 288 68 439 86 696 80 94 -2
217 -11 275 -20z m-4190 -565 c37 -52 107 -202 133 -285 38 -122 51 -217 51
-365 0 -279 -71 -535 -307 -1105 -138 -333 -193 -483 -241 -647 -91 -314 -115
-569 -81 -853 33 -270 10 -480 -80 -752 -47 -143 -140 -337 -225 -472 -60 -96
-151 -224 -156 -219 -16 17 -294 739 -359 933 -168 503 -234 828 -251 1241
l-7 170 30 35 c57 65 58 69 63 304 l5 220 220 5 c250 6 264 10 320 89 l30 43
3 226 c4 262 1 295 -35 350 -26 40 -86 82 -117 82 -9 0 -16 6 -16 13 0 15 165
230 279 362 112 130 352 370 466 466 115 97 235 189 245 189 5 0 18 -13 30
-30z m-1648 -872 l3 -233 -44 -95 c-68 -148 -120 -284 -162 -420 -39 -125 -92
-364 -105 -472 -6 -52 -9 -58 -29 -58 l-24 0 -3 223 -3 224 -28 42 c-20 29
-44 50 -80 67 -50 23 -61 24 -259 24 l-208 0 0 175 0 175 185 0 c215 0 272 10
322 53 66 58 73 86 73 320 l0 207 179 0 180 0 3 -232z m578 -523 l0 -175 -140
0 -139 0 33 79 c38 88 53 119 103 209 l35 62 54 0 54 0 0 -175z"/>
<path d="M12317 18310 c-126 -16 -258 -116 -315 -237 l-27 -58 -5 -450 -5
-450 -445 -5 c-432 -5 -447 -6 -500 -28 -99 -40 -180 -118 -229 -222 l-26 -55
-3 -509 c-3 -570 -3 -567 67 -673 50 -74 134 -137 218 -163 61 -19 93 -20 489
-20 l424 0 0 -387 c1 -214 5 -418 9 -455 25 -195 171 -336 371 -360 45 -5 272
-8 518 -6 411 4 440 5 495 25 110 39 188 111 241 222 l31 66 3 448 3 447 422
0 c325 0 434 3 473 14 158 42 274 166 304 326 13 68 13 905 0 985 -22 134
-109 247 -238 308 l-67 32 -447 3 -447 3 -3 448 -3 447 -38 76 c-63 128 -177
211 -314 229 -81 10 -873 10 -956 -1z m853 -878 c0 -340 3 -429 15 -476 33
-125 124 -229 247 -279 51 -21 70 -22 498 -27 l445 -5 0 -370 0 -370 -450 -5
-450 -5 -65 -32 c-71 -35 -148 -105 -185 -168 -51 -86 -55 -126 -55 -577 l0
-418 -370 0 -370 0 0 388 c0 213 -5 418 -10 456 -21 141 -112 265 -237 324
l-58 27 -452 3 -453 3 0 374 0 374 448 3 c442 3 448 3 505 26 124 51 225 181
247 322 5 36 10 240 10 458 l0 392 370 0 370 0 0 -418z"/>
<path d="M22930 7024 c-13 -3 -397 -44 -413 -44 -4 0 -7 -18 -7 -40 0 -35 3
-40 24 -40 36 0 479 49 483 54 2 2 1 20 -2 40 -7 33 -10 36 -39 35 -17 -1 -38
-3 -46 -5z"/>
<path d="M1920 6993 c-196 -33 -369 -180 -436 -372 -101 -290 56 -614 346
-712 179 -61 402 -20 540 100 l45 39 -100 104 c-55 56 -112 113 -127 126 l-27
23 -41 -27 c-76 -51 -177 -43 -239 18 -46 45 -62 82 -62 141 0 91 38 152 116
188 66 31 136 21 200 -27 l31 -23 122 122 c67 67 122 128 122 134 0 16 -91 84
-157 117 -93 46 -229 66 -333 49z"/>
<path d="M14374 6959 c-79 -25 -152 -89 -185 -161 -20 -45 -24 -69 -24 -158 0
-86 4 -113 21 -151 31 -67 87 -124 152 -156 55 -27 64 -28 255 -33 182 -5 200
-7 213 -24 18 -26 18 -39 -3 -65 -18 -20 -26 -21 -318 -24 l-300 -2 -3 -142
-3 -143 359 0 c338 0 362 1 420 21 80 27 160 98 193 171 20 45 24 69 24 158 0
129 -22 188 -96 254 -77 70 -114 79 -337 84 -182 4 -193 5 -207 25 -19 28 -19
33 5 57 19 19 33 20 315 20 l295 0 0 145 0 145 -357 -1 c-326 0 -363 -2 -419
-20z"/>
<path d="M18040 6440 l0 -540 180 0 180 0 0 280 c0 154 3 280 8 280 4 -1 59
-69 122 -153 64 -84 121 -152 127 -152 6 0 57 61 113 135 158 208 140 221 140
-108 l0 -282 180 0 180 0 0 540 0 540 -183 0 -183 0 -119 -170 c-66 -93 -124
-168 -130 -166 -5 1 -62 77 -126 167 l-116 164 -187 3 -186 2 0 -540z"/>
<path d="M2779 6834 c-149 -46 -272 -170 -319 -322 -22 -71 -26 -188 -9 -262
27 -118 124 -247 233 -309 102 -59 243 -76 361 -46 356 93 482 539 228 806
-103 109 -200 149 -352 148 -53 0 -117 -7 -142 -15z m239 -323 c101 -72 91
-240 -18 -296 -38 -20 -113 -19 -157 2 -41 19 -81 76 -90 126 -10 64 28 139
91 179 42 26 130 21 174 -11z"/>
<path d="M8922 6826 c-120 -46 -212 -128 -268 -242 -94 -189 -58 -413 90 -559
101 -99 208 -145 341 -145 131 0 233 41 330 131 134 126 186 313 137 490 -38
135 -127 241 -259 306 -74 37 -81 38 -192 40 -102 3 -124 0 -179 -21z m255
-312 c62 -46 85 -106 71 -182 -15 -81 -65 -125 -153 -130 -50 -3 -66 0 -94 20
-51 34 -73 71 -79 126 -8 84 20 138 93 177 40 21 126 15 162 -11z"/>
<path d="M11548 6831 c-151 -49 -282 -191 -318 -344 -17 -73 -12 -199 10 -271
42 -133 157 -257 287 -306 72 -27 198 -37 275 -21 255 53 427 317 374 571 -21
97 -56 167 -117 234 -59 65 -125 109 -204 136 -77 26 -225 27 -307 1z m229
-308 c74 -35 110 -135 78 -219 -52 -138 -254 -141 -309 -5 -21 55 -20 96 5
148 39 81 142 116 226 76z"/>
<path d="M3527 6833 c-4 -3 -7 -215 -7 -470 l0 -463 160 0 160 0 0 241 c0 136
4 239 9 237 5 -1 86 -93 181 -203 95 -110 188 -217 206 -237 l34 -38 160 0
160 0 -2 468 -3 467 -155 0 -155 0 -5 -248 -5 -249 -207 245 c-115 135 -215
248 -224 251 -21 8 -299 8 -307 -1z"/>
<path d="M4950 6826 c-109 -24 -176 -75 -217 -164 -22 -46 -24 -64 -21 -140 4
-106 32 -170 96 -219 63 -48 99 -55 305 -62 151 -5 190 -9 197 -21 14 -22 12
-35 -8 -53 -16 -15 -55 -17 -298 -19 l-279 -3 -3 -122 -3 -123 324 0 c348 0
387 5 467 55 152 96 177 331 49 452 -69 65 -114 77 -315 83 -188 5 -214 11
-214 50 0 41 21 45 299 50 l266 5 3 114 c2 85 -1 117 -10 123 -21 13 -575 8
-638 -6z"/>
<path d="M5764 6826 c-3 -8 -4 -147 -1 -308 4 -309 7 -330 57 -427 52 -103
165 -178 301 -201 98 -17 256 -8 339 19 127 40 221 131 265 255 16 44 19 92
22 364 l4 312 -155 0 -156 0 0 -237 c0 -131 -4 -265 -10 -297 -17 -105 -73
-156 -171 -156 -67 0 -115 24 -147 73 l-27 40 -5 286 -5 286 -153 3 c-126 2
-153 0 -158 -12z"/>
<path d="M6897 6834 c-4 -4 -7 -216 -7 -471 l0 -463 415 0 415 0 0 125 0 125
-255 0 -255 0 -2 343 -3 342 -151 3 c-82 1 -153 -1 -157 -4z"/>
<path d="M7637 6833 c-4 -3 -7 -59 -7 -124 l0 -118 153 -3 152 -3 3 -342 2
-343 160 0 160 0 2 343 3 342 153 3 152 3 0 124 0 125 -463 0 c-255 0 -467 -3
-470 -7z"/>
<path d="M9697 6834 c-4 -4 -7 -216 -7 -471 l0 -464 158 3 157 3 3 168 2 168
71 -3 71 -3 92 -167 91 -168 168 0 168 0 -12 23 c-7 12 -51 90 -99 173 l-88
151 67 44 c57 38 71 54 100 111 30 59 34 77 34 142 0 127 -53 209 -173 265
l-55 26 -370 3 c-204 2 -374 0 -378 -4z m644 -254 c12 -7 19 -21 19 -40 0 -19
-7 -33 -19 -40 -11 -6 -87 -10 -175 -10 l-156 0 0 43 c0 24 3 47 7 50 11 11
303 8 324 -3z"/>
<path d="M10793 6834 c-10 -5 -13 -108 -13 -470 l0 -464 160 0 160 0 -2 468
-3 467 -145 2 c-80 1 -151 -1 -157 -3z"/>
<path d="M12520 6826 c-163 -36 -249 -152 -238 -317 7 -87 44 -167 96 -202 80
-56 104 -61 302 -65 106 -2 190 -8 198 -14 17 -14 15 -43 -4 -62 -13 -14 -54
-16 -294 -16 l-279 0 -6 -52 c-3 -29 -5 -84 -3 -123 l3 -70 345 0 c334 0 346
1 392 22 116 54 182 155 182 278 0 119 -54 203 -164 254 -51 24 -68 26 -237
31 -115 3 -186 9 -193 16 -20 20 -8 67 20 75 14 4 139 7 278 8 l253 1 -3 123
-3 122 -295 2 c-203 1 -312 -2 -350 -11z"/>
<path d="M15535 6829 c-11 -16 -305 -902 -305 -917 0 -10 38 -12 176 -10 l177
3 14 48 14 47 168 0 169 0 13 -50 13 -50 178 0 c98 0 178 3 178 8 0 4 -69 214
-153 467 l-154 460 -241 3 c-165 2 -243 -1 -247 -9z m294 -403 c24 -85 40
-160 36 -165 -3 -7 -42 -11 -91 -11 -73 0 -84 2 -84 18 0 9 16 76 35 147 46
168 45 165 54 165 4 0 27 -70 50 -154z"/>
<path d="M16407 6833 c-4 -3 -7 -215 -7 -470 l0 -463 160 0 160 0 2 242 3 243
160 -184 c88 -101 182 -210 210 -242 l49 -59 163 0 163 0 0 465 0 465 -22 5
c-13 3 -84 4 -158 3 l-135 -3 -3 -242 c-1 -134 -6 -243 -11 -243 -5 0 -94 100
-197 223 -104 122 -199 232 -211 245 -21 21 -30 22 -171 22 -82 0 -152 -3
-155 -7z"/>
<path d="M19653 6828 c-6 -7 -77 -213 -158 -458 -81 -245 -150 -451 -153 -457
-3 -10 36 -13 176 -13 l180 0 13 50 13 50 170 -2 170 -3 14 -47 13 -48 181 0
c140 0 179 3 176 13 -3 6 -72 212 -153 457 -81 245 -152 451 -158 458 -7 9
-68 12 -242 12 -174 0 -235 -3 -242 -12z m295 -412 c23 -82 39 -153 36 -158
-7 -11 -171 -10 -178 1 -4 7 60 260 79 310 10 27 23 -3 63 -153z"/>
<path d="M20527 6834 c-4 -4 -7 -216 -7 -471 l0 -463 155 0 155 0 0 170 0 170
74 0 74 0 92 -170 92 -170 169 0 170 0 -25 43 c-13 23 -58 101 -100 174 -42
72 -76 134 -76 136 0 3 11 8 24 11 42 10 131 101 156 157 18 44 21 66 18 139
-3 76 -7 93 -33 136 -32 52 -102 105 -163 126 -41 13 -762 25 -775 12z m644
-254 c26 -14 26 -66 -1 -80 -12 -6 -80 -9 -177 -8 l-158 3 -3 33 c-6 63 -8 62
163 62 89 0 165 -4 176 -10z"/>
<path d="M21565 6818 c-3 -13 -5 -68 -3 -123 l3 -100 155 -5 155 -5 3 -342 2
-343 160 0 160 0 2 343 3 342 153 3 153 3 -3 122 -3 122 -467 3 -468 2 -5 -22z"/>
<path d="M22607 6834 c-4 -4 -7 -216 -7 -471 l0 -463 160 0 160 0 -2 468 -3
467 -151 3 c-82 1 -153 -1 -157 -4z"/>
<path d="M23067 6833 c-4 -3 -7 -215 -7 -470 l0 -463 160 0 160 0 0 243 1 242
32 -35 c17 -20 113 -129 212 -243 l180 -207 160 2 160 3 3 462 2 463 -22 5
c-13 3 -84 4 -158 3 l-135 -3 -3 -242 c-1 -134 -6 -243 -11 -243 -9 0 -96 99
-290 330 -63 74 -121 141 -129 148 -17 13 -303 18 -315 5z"/>
</g>
</svg>
